<mxfile host="app.diagrams.net" modified="2022-06-10T02:57:28.851Z" agent="5.0 (Windows NT 10.0; Win64; x64) AppleWebKit/537.36 (KHTML, like Gecko) Chrome/99.0.4844.51 Safari/537.36" etag="36Q8TqpfEL6N7TeA-90E" version="19.0.3" type="github">
  <diagram id="YNXkK3RKNKg_d20Gb63L" name="Page-1">
    <mxGraphModel dx="509" dy="544" grid="1" gridSize="10" guides="1" tooltips="1" connect="1" arrows="1" fold="1" page="1" pageScale="1" pageWidth="827" pageHeight="1169" math="0" shadow="0">
      <root>
        <mxCell id="0" />
        <mxCell id="1" parent="0" />
        <mxCell id="H5Ceg5C1NVuIUo9WAE9B-45" value="数据库" style="shape=umlLifeline;perimeter=lifelinePerimeter;whiteSpace=wrap;html=1;container=1;collapsible=0;recursiveResize=0;outlineConnect=0;" vertex="1" parent="1">
          <mxGeometry x="720" y="200" width="120" height="420" as="geometry" />
        </mxCell>
        <mxCell id="H5Ceg5C1NVuIUo9WAE9B-44" value="tencentCloud" style="shape=umlLifeline;perimeter=lifelinePerimeter;whiteSpace=wrap;html=1;container=1;collapsible=0;recursiveResize=0;outlineConnect=0;" vertex="1" parent="1">
          <mxGeometry x="560" y="200" width="120" height="420" as="geometry" />
        </mxCell>
        <mxCell id="H5Ceg5C1NVuIUo9WAE9B-43" value="clusterManager" style="shape=umlLifeline;perimeter=lifelinePerimeter;whiteSpace=wrap;html=1;container=1;collapsible=0;recursiveResize=0;outlineConnect=0;" vertex="1" parent="1">
          <mxGeometry x="400" y="200" width="120" height="420" as="geometry" />
        </mxCell>
        <mxCell id="H5Ceg5C1NVuIUo9WAE9B-42" value="cluster.js" style="shape=umlLifeline;perimeter=lifelinePerimeter;whiteSpace=wrap;html=1;container=1;collapsible=0;recursiveResize=0;outlineConnect=0;" vertex="1" parent="1">
          <mxGeometry x="240" y="200" width="120" height="420" as="geometry" />
        </mxCell>
        <mxCell id="H5Ceg5C1NVuIUo9WAE9B-41" value="界面" style="shape=umlLifeline;perimeter=lifelinePerimeter;whiteSpace=wrap;html=1;container=1;collapsible=0;recursiveResize=0;outlineConnect=0;" vertex="1" parent="1">
          <mxGeometry x="120" y="200" width="80" height="420" as="geometry" />
        </mxCell>
        <mxCell id="H5Ceg5C1NVuIUo9WAE9B-7" value="Owner" style="shape=umlActor;verticalLabelPosition=bottom;verticalAlign=top;html=1;outlineConnect=0;" vertex="1" parent="1">
          <mxGeometry x="50" y="190" width="30" height="60" as="geometry" />
        </mxCell>
        <mxCell id="H5Ceg5C1NVuIUo9WAE9B-8" value="" style="html=1;points=[];perimeter=orthogonalPerimeter;" vertex="1" parent="1">
          <mxGeometry x="155" y="280" width="10" height="320" as="geometry" />
        </mxCell>
        <mxCell id="H5Ceg5C1NVuIUo9WAE9B-9" value="" style="html=1;points=[];perimeter=orthogonalPerimeter;" vertex="1" parent="1">
          <mxGeometry x="295" y="280" width="10" height="140" as="geometry" />
        </mxCell>
        <mxCell id="H5Ceg5C1NVuIUo9WAE9B-13" value="节点扫描" style="html=1;verticalAlign=bottom;endArrow=block;rounded=0;exitX=1.06;exitY=0.033;exitDx=0;exitDy=0;exitPerimeter=0;entryX=-0.014;entryY=0.069;entryDx=0;entryDy=0;entryPerimeter=0;" edge="1" parent="1" source="H5Ceg5C1NVuIUo9WAE9B-8" target="H5Ceg5C1NVuIUo9WAE9B-9">
          <mxGeometry width="80" relative="1" as="geometry">
            <mxPoint x="200" y="359.58" as="sourcePoint" />
            <mxPoint x="280" y="300" as="targetPoint" />
          </mxGeometry>
        </mxCell>
        <mxCell id="H5Ceg5C1NVuIUo9WAE9B-15" value="" style="html=1;points=[];perimeter=orthogonalPerimeter;" vertex="1" parent="1">
          <mxGeometry x="455" y="300" width="10" height="110" as="geometry" />
        </mxCell>
        <mxCell id="H5Ceg5C1NVuIUo9WAE9B-18" value="getScanDevices" style="html=1;verticalAlign=bottom;endArrow=block;rounded=0;exitX=1.124;exitY=0.171;exitDx=0;exitDy=0;exitPerimeter=0;" edge="1" parent="1" source="H5Ceg5C1NVuIUo9WAE9B-9" target="H5Ceg5C1NVuIUo9WAE9B-15">
          <mxGeometry x="-0.0083" y="4" width="80" relative="1" as="geometry">
            <mxPoint x="175.51000000000005" y="479.9999999999999" as="sourcePoint" />
            <mxPoint x="400" y="400" as="targetPoint" />
            <mxPoint as="offset" />
          </mxGeometry>
        </mxCell>
        <mxCell id="H5Ceg5C1NVuIUo9WAE9B-19" value="" style="html=1;points=[];perimeter=orthogonalPerimeter;" vertex="1" parent="1">
          <mxGeometry x="615" y="320" width="10" height="80" as="geometry" />
        </mxCell>
        <mxCell id="H5Ceg5C1NVuIUo9WAE9B-21" value="validateDevice" style="html=1;verticalAlign=bottom;endArrow=block;rounded=0;entryX=-0.05;entryY=0.122;entryDx=0;entryDy=0;entryPerimeter=0;exitX=0.933;exitY=0.274;exitDx=0;exitDy=0;exitPerimeter=0;" edge="1" parent="1" source="H5Ceg5C1NVuIUo9WAE9B-15" target="H5Ceg5C1NVuIUo9WAE9B-19">
          <mxGeometry width="80" relative="1" as="geometry">
            <mxPoint x="500" y="300" as="sourcePoint" />
            <mxPoint x="600" y="350" as="targetPoint" />
          </mxGeometry>
        </mxCell>
        <mxCell id="H5Ceg5C1NVuIUo9WAE9B-23" value="返回结果" style="html=1;verticalAlign=bottom;endArrow=open;dashed=1;endSize=8;rounded=0;exitX=-0.063;exitY=0.876;exitDx=0;exitDy=0;exitPerimeter=0;entryX=1.033;entryY=0.818;entryDx=0;entryDy=0;entryPerimeter=0;" edge="1" parent="1" source="H5Ceg5C1NVuIUo9WAE9B-19" target="H5Ceg5C1NVuIUo9WAE9B-15">
          <mxGeometry relative="1" as="geometry">
            <mxPoint x="560" y="480" as="sourcePoint" />
            <mxPoint x="490" y="370" as="targetPoint" />
          </mxGeometry>
        </mxCell>
        <mxCell id="H5Ceg5C1NVuIUo9WAE9B-25" value="返回结果" style="html=1;verticalAlign=bottom;endArrow=open;dashed=1;endSize=8;rounded=0;exitX=-0.014;exitY=0.909;exitDx=0;exitDy=0;exitPerimeter=0;entryX=0.952;entryY=0.857;entryDx=0;entryDy=0;entryPerimeter=0;" edge="1" parent="1" source="H5Ceg5C1NVuIUo9WAE9B-15" target="H5Ceg5C1NVuIUo9WAE9B-9">
          <mxGeometry relative="1" as="geometry">
            <mxPoint x="389.03999999999985" y="510.0999999999999" as="sourcePoint" />
            <mxPoint x="239.99999999999991" y="510" as="targetPoint" />
          </mxGeometry>
        </mxCell>
        <mxCell id="H5Ceg5C1NVuIUo9WAE9B-26" value="返回扫描结果" style="html=1;verticalAlign=bottom;endArrow=open;dashed=1;endSize=8;rounded=0;exitX=0.055;exitY=0.921;exitDx=0;exitDy=0;exitPerimeter=0;" edge="1" parent="1" source="H5Ceg5C1NVuIUo9WAE9B-9" target="H5Ceg5C1NVuIUo9WAE9B-8">
          <mxGeometry relative="1" as="geometry">
            <mxPoint x="350.3399999999999" y="490.01" as="sourcePoint" />
            <mxPoint x="180" y="420" as="targetPoint" />
          </mxGeometry>
        </mxCell>
        <mxCell id="H5Ceg5C1NVuIUo9WAE9B-27" value="" style="html=1;points=[];perimeter=orthogonalPerimeter;" vertex="1" parent="1">
          <mxGeometry x="295" y="470" width="10" height="120" as="geometry" />
        </mxCell>
        <mxCell id="H5Ceg5C1NVuIUo9WAE9B-28" value="" style="html=1;points=[];perimeter=orthogonalPerimeter;" vertex="1" parent="1">
          <mxGeometry x="455" y="485" width="10" height="95" as="geometry" />
        </mxCell>
        <mxCell id="H5Ceg5C1NVuIUo9WAE9B-29" value="addCluster" style="html=1;verticalAlign=bottom;endArrow=block;rounded=0;exitX=1.124;exitY=0.171;exitDx=0;exitDy=0;exitPerimeter=0;" edge="1" parent="1">
          <mxGeometry width="80" relative="1" as="geometry">
            <mxPoint x="305" y="490" as="sourcePoint" />
            <mxPoint x="453.76" y="490" as="targetPoint" />
          </mxGeometry>
        </mxCell>
        <mxCell id="H5Ceg5C1NVuIUo9WAE9B-30" value="集群信息入库" style="html=1;verticalAlign=bottom;endArrow=block;rounded=0;exitX=1.071;exitY=0.026;exitDx=0;exitDy=0;exitPerimeter=0;entryX=-0.014;entryY=0.069;entryDx=0;entryDy=0;entryPerimeter=0;" edge="1" parent="1">
          <mxGeometry width="80" relative="1" as="geometry">
            <mxPoint x="165.85000000000002" y="480.0000000000001" as="sourcePoint" />
            <mxPoint x="295.00000000000006" y="480.30000000000007" as="targetPoint" />
          </mxGeometry>
        </mxCell>
        <mxCell id="H5Ceg5C1NVuIUo9WAE9B-31" value="" style="html=1;points=[];perimeter=orthogonalPerimeter;" vertex="1" parent="1">
          <mxGeometry x="775" y="510" width="10" height="60" as="geometry" />
        </mxCell>
        <mxCell id="H5Ceg5C1NVuIUo9WAE9B-32" value="添加用户集群信息" style="html=1;verticalAlign=bottom;endArrow=block;rounded=0;exitX=0.98;exitY=0.364;exitDx=0;exitDy=0;exitPerimeter=0;entryX=0.017;entryY=0.178;entryDx=0;entryDy=0;entryPerimeter=0;" edge="1" parent="1" source="H5Ceg5C1NVuIUo9WAE9B-28" target="H5Ceg5C1NVuIUo9WAE9B-31">
          <mxGeometry width="80" relative="1" as="geometry">
            <mxPoint x="520" y="670" as="sourcePoint" />
            <mxPoint x="668.76" y="670" as="targetPoint" />
          </mxGeometry>
        </mxCell>
        <mxCell id="H5Ceg5C1NVuIUo9WAE9B-33" value="返回结果" style="html=1;verticalAlign=bottom;endArrow=open;dashed=1;endSize=8;rounded=0;entryX=0.94;entryY=0.777;entryDx=0;entryDy=0;entryPerimeter=0;exitX=0.02;exitY=0.827;exitDx=0;exitDy=0;exitPerimeter=0;" edge="1" parent="1" source="H5Ceg5C1NVuIUo9WAE9B-31" target="H5Ceg5C1NVuIUo9WAE9B-28">
          <mxGeometry relative="1" as="geometry">
            <mxPoint x="760" y="570" as="sourcePoint" />
            <mxPoint x="465.9599999999999" y="584" as="targetPoint" />
          </mxGeometry>
        </mxCell>
        <mxCell id="H5Ceg5C1NVuIUo9WAE9B-34" value="返回结果" style="html=1;verticalAlign=bottom;endArrow=open;dashed=1;endSize=8;rounded=0;exitX=-0.014;exitY=0.909;exitDx=0;exitDy=0;exitPerimeter=0;entryX=0.952;entryY=0.857;entryDx=0;entryDy=0;entryPerimeter=0;" edge="1" parent="1">
          <mxGeometry relative="1" as="geometry">
            <mxPoint x="455.0000000000001" y="570.0100000000001" as="sourcePoint" />
            <mxPoint x="304.65999999999997" y="570" as="targetPoint" />
          </mxGeometry>
        </mxCell>
        <mxCell id="H5Ceg5C1NVuIUo9WAE9B-35" value="返回入库结果" style="html=1;verticalAlign=bottom;endArrow=open;dashed=1;endSize=8;rounded=0;exitX=0.055;exitY=0.921;exitDx=0;exitDy=0;exitPerimeter=0;" edge="1" parent="1">
          <mxGeometry relative="1" as="geometry">
            <mxPoint x="294.99999999999994" y="580.0000000000002" as="sourcePoint" />
            <mxPoint x="164.45" y="580.0000000000002" as="targetPoint" />
          </mxGeometry>
        </mxCell>
      </root>
    </mxGraphModel>
  </diagram>
</mxfile>
